<svg xmlns="http://www.w3.org/2000/svg" width="128" height="128" viewBox="0 0 128 128">
  <!-- A timber ballista with visible wheels and a long steel bolt. -->
  <ellipse cx="65" cy="105" rx="35" ry="6" fill="#14252b" opacity=".24"/>
  <path d="M38 77 58 68 92 78 72 92Z" fill="#bc965e" stroke="#795f3e" stroke-width="3" stroke-linejoin="round"/>
  <path d="M38 77 38 86 72 99 72 92Z" fill="#927044" stroke="#795f3e" stroke-width="3" stroke-linejoin="round"/>
  <path d="M72 92 92 78 92 87 72 99Z" fill="#a7804c" stroke="#795f3e" stroke-width="3" stroke-linejoin="round"/>
  <circle cx="43" cy="92" r="10" fill="#584d36" stroke="#393f35" stroke-width="3"/>
  <circle cx="43" cy="92" r="5" fill="#bc965e"/>
  <circle cx="87" cy="93" r="10" fill="#584d36" stroke="#393f35" stroke-width="3"/>
  <circle cx="87" cy="93" r="5" fill="#bc965e"/>
  <path d="M58 83 60 60 67 59 70 86" fill="#ac874f" stroke="#735b3a" stroke-width="3" stroke-linejoin="round"/>
  <path d="M39 58 52 50 69 54 89 61 99 72 86 66 67 62 49 59 34 67Z" fill="#c7a36a" stroke="#826641" stroke-width="3" stroke-linejoin="round"/>
  <path d="M35 66 63 77 98 72" fill="none" stroke="#e2d0a1" stroke-width="2"/>
  <path d="M55 83 80 45" stroke="#715638" stroke-width="6"/>
  <path d="M61 73 83 40" stroke="#d4c7a0" stroke-width="3"/>
  <path d="M77 42 87 33 86 47Z" fill="#c9d3c3" stroke="#778f85" stroke-width="2"/>
  <path d="M48 74 61 77 56 86 44 83Z" fill="#3b9baf" stroke="#286d7e" stroke-width="2"/>
  <path d="M46 76 57 79" stroke="#dabc76" stroke-width="2"/>
</svg>
